<?xml version="1.0" encoding="utf-8"?><!-- Uploaded to: SVG Repo, www.svgrepo.com, Generator: SVG Repo Mixer Tools -->
<svg version="1.1" id="designs" xmlns="http://www.w3.org/2000/svg" xmlns:xlink="http://www.w3.org/1999/xlink" 
	 width="800px" height="800px" viewBox="0 0 32 32" xml:space="preserve">
<style type="text/css">
	.sketchy_een{fill:#111918;}
</style>
<path class="sketchy_een" d="M1.817,16.412C1.371,16.414,1,16.039,1,15.595c0-0.443,0.371-0.817,0.813-0.817
	c0.001,0,0.002,0,0.004,0c1.015,0.004,2.025,0.057,3.04,0.057c0.96-0.002,1.924,0.004,2.884-0.024
	c0.436-0.014,0.799,0.373,0.799,0.799c0,0.452-0.365,0.777-0.799,0.799c-0.96,0.046-1.924,0.012-2.884,0.006
	C3.844,16.408,2.831,16.406,1.817,16.412z M2.151,13.665c0.777-0.196,1.547-0.42,2.326-0.605c0.764-0.186,1.529-0.371,2.291-0.569
	c0.72-0.186,1.444-0.347,2.17-0.506c0.686-0.151,1.37-0.327,2.063-0.442c0.194-0.032,0.381-0.204,0.476-0.367
	c0.109-0.183,0.137-0.409,0.081-0.615c-0.094-0.345-0.422-0.587-0.771-0.587c-0.07,0-0.14,0.01-0.21,0.03
	c-0.666,0.196-1.347,0.339-2.023,0.49c-0.357,0.079-0.716,0.149-1.073,0.23c-0.371,0.081-0.736,0.182-1.103,0.272
	c-1.549,0.387-3.11,0.72-4.663,1.089c-0.434,0.103-0.686,0.589-0.571,1.006C1.263,13.53,1.717,13.774,2.151,13.665z M11.036,21.364
	c0.446,0.115,0.916-0.139,1.041-0.589c0.058-0.218,0.028-0.456-0.087-0.651c-0.099-0.172-0.299-0.357-0.504-0.389
	c-0.595-0.092-1.198-0.154-1.796-0.23c-0.587-0.086-1.169-0.197-1.754-0.288c-0.621-0.097-1.242-0.196-1.862-0.311
	c-0.585-0.109-1.164-0.248-1.745-0.371c-0.654-0.137-1.309-0.272-1.965-0.391c-0.078-0.014-0.154-0.023-0.228-0.023
	c-0.134,0-0.262,0.029-0.389,0.104c-0.18,0.103-0.313,0.276-0.367,0.478c-0.056,0.206-0.028,0.432,0.081,0.615
	c0.095,0.163,0.282,0.335,0.478,0.367c0.799,0.133,1.602,0.262,2.396,0.416c0.75,0.145,1.493,0.321,2.245,0.454
	c0.756,0.133,1.517,0.246,2.271,0.387C9.58,21.075,10.318,21.18,11.036,21.364z M30.983,18.612
	c-0.016-0.458-0.057-0.912-0.149-1.361c-0.089-0.418-0.196-0.829-0.297-1.245c-0.046-0.183-0.081-0.371-0.141-0.553
	c-0.058-0.182-0.133-0.361-0.206-0.538c-0.161-0.391-0.323-0.803-0.549-1.162c-0.24-0.385-0.551-0.722-0.831-1.077
	c-0.211-0.263-0.429-0.517-0.669-0.752c0.142-0.223,0.247-0.472,0.296-0.732c0.083-0.446,0.085-0.877,0.067-1.327
	c-0.02-0.44-0.06-0.89-0.188-1.311c-0.05-0.173-0.117-0.341-0.184-0.508c-0.105-0.266-0.212-0.541-0.373-0.781
	c-0.129-0.194-0.288-0.375-0.434-0.561c-0.125-0.161-0.258-0.315-0.403-0.458c-0.317-0.311-0.656-0.589-1.041-0.807
	c-0.383-0.218-0.807-0.375-1.232-0.486c-0.415-0.111-0.855-0.165-1.283-0.131c-0.268,0.022-0.539,0.059-0.803,0.103
	c-0.2,0.032-0.391,0.107-0.579,0.18c-0.267,0.101-0.524,0.223-0.782,0.344c-0.183-0.4-0.394-0.782-0.658-1.141
	c-0.216-0.292-0.432-0.583-0.666-0.861c-0.286-0.339-0.601-0.615-0.954-0.881c-0.311-0.236-0.651-0.395-1-0.561
	c-0.47-0.224-0.978-0.323-1.493-0.381c-0.164-0.018-0.33-0.027-0.495-0.027c-0.217,0-0.435,0.015-0.65,0.041
	c-0.153,0.02-0.305,0.04-0.456,0.073c-0.135,0.028-0.262,0.101-0.387,0.155c-0.163,0.071-0.317,0.171-0.47,0.262
	c-0.347,0.212-0.67,0.506-0.938,0.813c-0.339,0.385-0.662,0.775-0.96,1.192c-0.1,0.139-0.185,0.285-0.262,0.437
	c-0.19-0.007-0.38-0.014-0.57-0.021c-0.04-0.001-0.08-0.002-0.119-0.002c-0.303,0-0.598,0.039-0.899,0.091
	c-0.137,0.022-0.274,0.05-0.411,0.081C9.587,4.77,9.371,4.855,9.163,4.96c-0.282,0.143-0.559,0.309-0.811,0.5
	C8.05,5.69,7.812,5.948,7.584,6.25c-0.202,0.266-0.341,0.565-0.47,0.871C6.856,7.745,6.717,8.405,6.646,9.074
	c-0.02,0.202,0.099,0.434,0.238,0.571c0.149,0.151,0.357,0.236,0.571,0.236c0.214,0,0.422-0.085,0.571-0.236
	c0.163-0.161,0.218-0.351,0.238-0.571c0.009-0.093,0.017-0.187,0.027-0.28c0.068-0.401,0.165-0.792,0.312-1.171
	c0.082-0.178,0.179-0.349,0.29-0.51c0.11-0.127,0.223-0.249,0.347-0.361C9.479,6.581,9.732,6.427,9.996,6.3
	c0.256-0.092,0.538-0.15,0.81-0.192c0.143-0.009,0.289,0.003,0.435,0.002c-0.052,0.186-0.1,0.372-0.131,0.566
	c-0.034,0.224-0.038,0.419,0.083,0.623c0.105,0.18,0.28,0.317,0.482,0.371c0.21,0.058,0.438,0.028,0.625-0.081
	c0.161-0.095,0.343-0.288,0.371-0.484c0.046-0.335,0.111-0.66,0.222-0.978c0.077-0.22,0.159-0.44,0.246-0.657
	c0.137-0.294,0.328-0.56,0.52-0.818c0.279-0.354,0.59-0.703,0.937-0.99c0.175-0.126,0.362-0.238,0.557-0.332
	c0.085-0.029,0.17-0.051,0.258-0.068c0.319-0.032,0.64-0.039,0.958-0.009c0.234,0.036,0.478,0.077,0.703,0.151
	c0.145,0.069,0.29,0.14,0.434,0.208c0.176,0.081,0.333,0.188,0.487,0.302c0.181,0.147,0.353,0.301,0.509,0.478
	c0.124,0.141,0.237,0.291,0.351,0.439c0.315,0.417,0.62,0.854,0.837,1.331c0.071,0.178,0.135,0.359,0.217,0.533
	c0.228,0.494,0.771,0.748,1.293,0.573c0.222-0.075,0.438-0.196,0.645-0.305c0.184-0.096,0.37-0.192,0.559-0.28
	c0.258-0.098,0.516-0.166,0.788-0.211c0.24-0.023,0.471-0.031,0.71-0.013c0.28,0.052,0.551,0.126,0.819,0.222
	c0.23,0.106,0.45,0.23,0.657,0.376c0.172,0.146,0.342,0.299,0.495,0.462c0.154,0.163,0.292,0.34,0.428,0.517
	c0.12,0.164,0.212,0.342,0.294,0.527c0.057,0.138,0.111,0.276,0.155,0.418c0.049,0.158,0.081,0.318,0.107,0.479
	c0.041,0.398,0.067,0.805,0.042,1.204c-0.017,0.091-0.037,0.181-0.064,0.27c-0.026,0.049-0.053,0.096-0.083,0.142
	c-0.185,0.208-0.408,0.401-0.482,0.679c-0.089,0.325-0.006,0.647,0.222,0.894c0.074,0.079,0.168,0.142,0.258,0.206
	c0.206,0.175,0.395,0.371,0.577,0.571c0.143,0.155,0.274,0.323,0.407,0.488c0.121,0.147,0.246,0.292,0.368,0.438
	c0.227,0.331,0.397,0.697,0.559,1.063c0.064,0.153,0.127,0.306,0.18,0.463c0.077,0.22,0.119,0.452,0.18,0.676
	c0.12,0.445,0.239,0.891,0.316,1.346c0.061,0.607,0.073,1.227,0.011,1.833c-0.052,0.293-0.141,0.572-0.249,0.85
	c-0.117,0.264-0.243,0.523-0.371,0.783c-0.105,0.214-0.214,0.42-0.348,0.615c-0.229,0.259-0.468,0.504-0.734,0.726
	c-0.308,0.226-0.636,0.425-0.972,0.607c-0.329,0.179-0.656,0.363-0.997,0.517c-0.155,0.057-0.309,0.097-0.471,0.125
	c-0.272,0.027-0.54,0.035-0.815,0.031c-0.139-0.002-0.276-0.01-0.413-0.016c-0.305-0.014-0.581,0.077-0.811,0.278
	c-0.242,0.212-0.357,0.543-0.438,0.847c-0.06,0.22-0.111,0.441-0.187,0.656c-0.134,0.271-0.299,0.523-0.478,0.766
	c-0.449,0.547-0.938,1.055-1.476,1.512c-0.27,0.19-0.559,0.342-0.86,0.481c-0.332,0.13-0.664,0.228-1.016,0.291
	c-0.262,0.019-0.515,0.016-0.776-0.007c-0.239-0.046-0.466-0.109-0.695-0.192c-0.242-0.112-0.469-0.24-0.692-0.387
	c-0.172-0.14-0.336-0.288-0.483-0.455c-0.246-0.342-0.468-0.703-0.745-1.021c-0.139-0.163-0.313-0.254-0.506-0.335
	c-0.212-0.087-0.444-0.04-0.662-0.006c-0.208,0.032-0.415,0.073-0.624,0.106c-0.239,0.026-0.479,0.042-0.721,0.057
	c-0.272,0.02-0.539,0.041-0.811,0.025c-0.1-0.023-0.196-0.054-0.292-0.09c-0.288-0.136-0.562-0.292-0.825-0.474
	c-0.204-0.165-0.401-0.337-0.576-0.532c-0.225-0.327-0.415-0.681-0.586-1.039c-0.142-0.379-0.239-0.765-0.308-1.166
	c-0.041-0.335-0.072-0.675-0.055-1.011c0.022-0.466-0.405-0.853-0.853-0.853c-0.448,0-0.873,0.387-0.851,0.853
	c0.02,0.438,0.05,0.875,0.111,1.311c0.056,0.407,0.159,0.809,0.28,1.2c0.133,0.424,0.357,0.823,0.573,1.208
	c0.147,0.266,0.313,0.532,0.531,0.748c0.123,0.123,0.254,0.238,0.385,0.353c0.329,0.282,0.676,0.529,1.059,0.73
	c0.208,0.109,0.428,0.202,0.647,0.288c0.292,0.115,0.615,0.149,0.93,0.141c0.708-0.02,1.411-0.121,2.111-0.227
	c0.098,0.108,0.189,0.225,0.277,0.34c-0.008-0.01-0.016-0.02-0.024-0.03c0.157,0.204,0.305,0.418,0.486,0.599
	c0.149,0.147,0.307,0.284,0.472,0.412c0.208,0.163,0.418,0.311,0.645,0.446c0.216,0.131,0.464,0.228,0.698,0.319
	c0.428,0.167,0.881,0.254,1.339,0.28c0.43,0.022,0.879-0.018,1.297-0.123c0.444-0.113,0.867-0.278,1.281-0.472
	c0.416-0.194,0.777-0.45,1.117-0.752c0.301-0.268,0.577-0.563,0.855-0.853c0.321-0.337,0.615-0.7,0.879-1.083
	c0.224-0.325,0.418-0.686,0.539-1.063c0.051-0.159,0.088-0.323,0.132-0.485c0.068,0.002,0.137,0.004,0.205,0.007
	c0.151,0.004,0.301,0.01,0.45,0.002c0.244-0.014,0.498-0.038,0.738-0.083c0.242-0.046,0.456-0.129,0.682-0.23
	c0.331-0.145,0.645-0.331,0.964-0.5c0.359-0.192,0.722-0.381,1.055-0.613c0.353-0.246,0.67-0.524,0.97-0.831
	c0.299-0.303,0.539-0.639,0.724-1.023c0.206-0.426,0.42-0.843,0.601-1.279c0.171-0.416,0.256-0.829,0.309-1.275
	C31.017,19.367,30.997,18.99,30.983,18.612z M26.33,19.451c-0.119,0.245-0.261,0.477-0.422,0.696
	c-0.154,0.186-0.315,0.358-0.5,0.516c-0.074,0.052-0.15,0.1-0.23,0.143c-0.25,0.091-0.508,0.153-0.77,0.198
	c-0.204,0.022-0.408,0.032-0.612,0.019c-0.07-0.015-0.14-0.033-0.21-0.051c-0.482-0.127-0.992,0.153-1.125,0.637
	c-0.065,0.236-0.03,0.494,0.093,0.704c0.105,0.182,0.327,0.391,0.547,0.422c0.383,0.05,0.736,0.091,1.123,0.054
	c0.387-0.034,0.783-0.099,1.154-0.214c0.194-0.061,0.383-0.145,0.565-0.234c0.175-0.085,0.329-0.21,0.482-0.333
	c0.303-0.242,0.539-0.549,0.766-0.861c0.19-0.26,0.365-0.539,0.5-0.833c0.089-0.196,0.171-0.393,0.226-0.603
	c0.057-0.22,0.089-0.446,0.117-0.67c0.091-0.744-0.091-1.497-0.361-2.184c-0.077-0.198-0.169-0.357-0.359-0.468
	c-0.12-0.071-0.257-0.107-0.395-0.107c-0.07,0-0.14,0.009-0.208,0.028c-0.196,0.052-0.365,0.183-0.468,0.359
	c-0.097,0.163-0.153,0.42-0.079,0.603c0.121,0.299,0.233,0.591,0.294,0.904c0.022,0.247,0.019,0.495-0.004,0.743
	C26.425,19.098,26.388,19.278,26.33,19.451z"/>
</svg>