<!DOCTYPE svg PUBLIC "-//W3C//DTD SVG 1.1//EN" "http://www.w3.org/Graphics/SVG/1.1/DTD/svg11.dtd">
<!-- Uploaded to: SVG Repo, www.svgrepo.com, Transformed by: SVG Repo Mixer Tools -->
<svg version="1.1" id="designs" xmlns="http://www.w3.org/2000/svg" xmlns:xlink="http://www.w3.org/1999/xlink" width="64px" height="64px" viewBox="0 0 32 32" xml:space="preserve" fill="#000000" stroke="#000000" stroke-width="0.16">
<g id="SVGRepo_bgCarrier" stroke-width="0"/>
<g id="SVGRepo_tracerCarrier" stroke-linecap="round" stroke-linejoin="round"/>
<g id="SVGRepo_iconCarrier"> <style type="text/css"> .sketchy_een{fill:#111918;} </style> <path class="sketchy_een" d="M28.177,9.932c-0.017-0.333-0.035-0.666-0.035-1c-0.002-0.381,0.017-0.762,0.031-1.144 c0.015-0.486,0.027-0.971,0.037-1.457c0.003-0.119-0.025-0.231-0.071-0.334c0.117-0.455-0.157-0.899-0.597-1.035 c-0.232-0.073-0.48-0.05-0.718-0.06c-0.211-0.008-0.422-0.023-0.633-0.029c-0.478-0.013-0.956-0.021-1.434-0.039 c-0.224-0.008-0.448-0.011-0.672-0.011c-0.465,0-0.929,0.012-1.392,0.015c-0.7,0.004-1.395,0.098-2.095,0.101 c-0.017-0.16-0.032-0.321-0.053-0.481c0.01,0.073,0.019,0.147,0.031,0.22c-0.044-0.335-0.056-0.671-0.097-1.008 c-0.027-0.23-0.058-0.462-0.095-0.691c-0.041-0.244-0.164-0.449-0.319-0.638C19.81,2.028,19.289,2.006,18.916,2 c-0.023,0-0.046,0-0.069,0c-0.277,0-0.556,0.02-0.831,0.024c-0.851,0.01-1.701,0.006-2.55,0.004 c-0.791-0.002-1.585-0.016-2.376,0.023c-0.269,0.014-0.54,0.029-0.805,0.075c-0.203,0.033-0.372,0.141-0.526,0.269 c-0.236,0.189-0.315,0.491-0.344,0.778c-0.025,0.236-0.021,0.475-0.039,0.712c-0.021,0.107-0.049,0.213-0.072,0.319 c-0.059,0.273-0.091,0.553-0.118,0.831c-0.078,0-0.157,0.001-0.235,0.001C9.916,5.041,8.883,5.043,7.849,5.049 C7.341,5.052,6.834,5.066,6.327,5.068C5.785,5.072,5.243,5.047,4.701,5.045c-0.27,0-0.501,0.149-0.646,0.359 C3.889,5.556,3.78,5.766,3.79,6.001c0.037,0.88,0.093,1.761,0.118,2.643C3.92,9.041,3.924,9.439,3.934,9.836 c0.01,0.368,0.023,0.737,0.012,1.105c-0.016,0.426,0.368,0.784,0.784,0.784c0.166,0,0.328-0.072,0.467-0.174 c0.092-0.002,0.184-0.005,0.276-0.008c0.004,0.025,0.003,0.049,0.01,0.073c0.025,0.173,0.049,0.346,0.072,0.519 c0.182,1.639,0.263,3.281,0.371,4.926c0.054,0.848,0.12,1.695,0.149,2.544c0.029,0.84,0.041,1.679,0.11,2.517 c0.087,1.037,0.157,2.076,0.259,3.113c0.091,0.927,0.206,1.849,0.33,2.772c0.032,0.23,0.066,0.46,0.1,0.69 C6.891,28.879,6.9,29.07,6.94,29.246c0.087,0.364,0.438,0.59,0.797,0.599C7.87,29.937,8.021,30.003,8.191,30 c0.846-0.019,1.689-0.075,2.533-0.114c0.824-0.039,1.652-0.054,2.477-0.056c0.745-0.002,1.49,0.039,2.237,0.05 c0.397,0.006,0.793,0.015,1.19,0.021c0.19,0.004,0.381,0.002,0.571,0.002c0.211-0.002,0.424-0.004,0.637,0 c1.231,0.019,2.463,0.066,3.694,0.05c0.132,0,0.261,0.004,0.393,0.008c0.132,0.006,0.263,0.01,0.395,0.008 c0.271,0,0.54,0.004,0.811,0.004c0.124,0,0.246-0.006,0.37-0.002c0.079,0.002,0.157,0.018,0.236,0.019 c0.17,0.01,0.346,0.012,0.517-0.002c0.194-0.015,0.363-0.076,0.513-0.193c0.286-0.066,0.539-0.261,0.626-0.568 c0.043-0.149,0.044-0.319,0.066-0.474c0.017-0.134,0.033-0.265,0.043-0.399c0.021-0.279,0.039-0.557,0.056-0.834 c0.025-0.401,0.056-0.801,0.074-1.202c0.017-0.383,0.008-0.768,0.012-1.153c0.008-0.776,0.089-1.55,0.122-2.326 c0.033-0.83,0.074-1.656,0.128-2.484c0.043-0.673,0.081-1.345,0.147-2.014c0.068-0.704,0.147-1.405,0.226-2.105 c0.081-0.712,0.149-1.424,0.228-2.136c0.098-0.864,0.203-1.726,0.299-2.589c0.169,0.001,0.337-0.005,0.506,0.005 c0.074,0.004,0.141-0.02,0.209-0.038c0.044-0.004,0.089,0.004,0.133-0.008c0.407-0.111,0.643-0.529,0.557-0.935 C28.181,10.335,28.187,10.132,28.177,9.932z M13.075,3.645c0.006-0.001,0.011-0.001,0.017-0.002 C13.086,3.644,13.081,3.645,13.075,3.645L13.075,3.645z M12.911,4.572c0.016-0.084,0.037-0.167,0.061-0.25 c0.05-0.176,0.066-0.364,0.089-0.544c0.006-0.044,0.01-0.089,0.014-0.133c0.07-0.01,0.139-0.019,0.209-0.029 c0.834-0.076,1.674-0.074,2.511-0.072c0.197,0,0.397,0,0.594-0.002c0.544-0.002,1.085-0.004,1.627-0.017 c0.27-0.006,0.544-0.01,0.815,0.007c0.031,0.329,0.048,0.66,0.069,0.99c0.009,0.146,0.01,0.293,0.013,0.44 c-1,0.018-2,0.041-3.001,0.054c-0.813,0.01-1.627,0.006-2.44,0.006c-0.198,0-0.397,0.003-0.596,0.004 C12.887,4.874,12.895,4.723,12.911,4.572z M23.705,28.349c-0.112,0-0.223,0.008-0.335,0.002c-0.234-0.01-0.468-0.01-0.702-0.008 c-0.099,0-0.195,0-0.292-0.002c-0.178,0-0.354,0.004-0.53,0.008c-0.192,0.004-0.385,0.008-0.577,0.006 c-0.199-0.002-0.397,0-0.594,0.004c-0.157,0.002-0.315,0.004-0.472,0.002c-0.809-0.006-1.616-0.018-2.424-0.01 c-0.395,0.004-0.789-0.008-1.184-0.008c-0.402,0-0.803,0.004-1.205-0.008c-0.515-0.015-1.029-0.022-1.542-0.022 c-0.612,0-1.224,0.01-1.836,0.028c-1.181,0.036-2.363,0.008-3.542-0.001c-0.005-0.029-0.011-0.058-0.016-0.087 c-0.035-0.228-0.07-0.458-0.103-0.689c0.01,0.072,0.019,0.145,0.029,0.217c-0.092-0.684-0.209-1.364-0.304-2.048 c-0.098-0.768-0.168-1.536-0.25-2.306c-0.085-0.807-0.18-1.612-0.209-2.422c-0.031-0.849-0.058-1.697-0.118-2.544 c-0.058-0.845-0.122-1.691-0.155-2.538C7.286,14.45,7.289,12.97,7.12,11.504c0.1-0.001,0.2-0.006,0.3-0.006 c0.457,0.006,0.915,0.002,1.372,0c0.344-0.004,0.687-0.006,1.031-0.006c0.76,0.002,1.521,0.039,2.277,0.101 c0.377,0.031,0.755,0.029,1.132,0.041c0.346,0.012,0.691,0.045,1.037,0.05c0.805,0.017,1.61,0.019,2.415,0.029 c0.41,0.004,0.822,0,1.234-0.002c0.497-0.002,0.999-0.02,1.496,0.026c0.023,0.005,0.045,0.01,0.068,0.017 c0.464,0.145,0.971-0.165,1.097-0.621c0.064-0.23,0.031-0.482-0.089-0.687c-0.151-0.257-0.464-0.464-0.77-0.443 c-0.782,0.058-1.571,0.015-2.353,0.015c-0.551,0-1.101,0.01-1.65,0.012c-0.368,0-0.735,0.004-1.103,0.002 c-0.3-0.002-0.602-0.012-0.9,0c-0.366,0.014-0.726-0.006-1.089-0.021c-0.373-0.014-0.747-0.023-1.12-0.041 c-0.265-0.012-0.532-0.031-0.797-0.044c-0.242-0.012-0.486-0.004-0.728-0.004c-0.29,0.002-0.578,0-0.869-0.004 c-0.259-0.002-0.52-0.006-0.78-0.006C7.834,9.913,7.337,9.894,6.838,9.88c-0.45-0.011-0.9-0.014-1.351-0.017c0,0,0,0,0,0 C5.476,9.457,5.45,9.05,5.452,8.644c0.002-0.676,0.001-1.352-0.004-2.028c0.603-0.024,1.205-0.057,1.807-0.091 c0.813-0.046,1.627-0.042,2.44-0.037c1.645,0.011,3.289,0.031,4.934,0.035c0.801,0.004,1.604,0.014,2.407-0.008 c0.772-0.019,1.546-0.016,2.32-0.016c0.726,0,1.451-0.004,2.177-0.025c0.722-0.021,1.447,0.006,2.169,0.012 c0.594,0.004,1.188,0.004,1.78,0c0.355-0.002,0.704,0.016,1.055,0.051c0.002,0.81,0.032,1.618,0.03,2.427 c-0.002,0.306,0.018,0.61,0.036,0.916c-0.068,0.001-0.135,0.004-0.203,0.005C26.08,9.89,25.759,9.925,25.44,9.942 c-0.302,0.016-0.602,0.033-0.904,0.043c-0.36,0.012-0.718,0.006-1.078,0.021c-0.447,0.021-0.822,0.36-0.822,0.824 c0,0.428,0.375,0.851,0.822,0.822c0.346-0.021,0.689-0.064,1.035-0.089c0.211-0.016,0.422-0.016,0.632-0.017 c-0.089,0.891-0.177,1.785-0.228,2.68c-0.05,0.892-0.103,1.78-0.18,2.668c-0.072,0.805-0.17,1.606-0.248,2.411 c-0.077,0.807-0.13,1.619-0.182,2.43c-0.037,0.553-0.066,1.109-0.103,1.662c-0.037,0.583-0.099,1.163-0.122,1.745 c-0.041,0.981-0.03,1.971-0.146,2.948c-0.014,0.087-0.029,0.173-0.043,0.26c-0.017,0-0.034,0-0.051,0 C23.784,28.349,23.743,28.349,23.705,28.349z M6.756,27.893c0.005,0.038,0.011,0.076,0.016,0.114 c0.005,0.035,0.008,0.07,0.013,0.105C6.775,28.039,6.766,27.967,6.756,27.893z M17.166,25.007c0.083,0.199,0.017,0.482-0.087,0.66 c-0.112,0.192-0.298,0.335-0.513,0.395c-0.221,0.06-0.462,0.029-0.66-0.087c-0.13-0.075-0.232-0.178-0.308-0.308 c-0.087-0.193-0.139-0.339-0.141-0.555c0-0.052,0-0.103,0.002-0.155c0.004-0.114,0.004-0.226,0.002-0.339 c-0.004-0.221-0.004-0.439-0.006-0.66c-0.002-0.7,0-1.399-0.021-2.099c-0.025-0.783-0.023-1.569-0.087-2.353 c-0.062-0.753-0.062-1.507-0.064-2.262c-0.002-0.861-0.023-1.722-0.027-2.583c-0.004-0.468,0.391-0.857,0.857-0.857 s0.861,0.389,0.857,0.857c-0.004,0.635-0.023,1.267-0.015,1.902c0.004,0.368,0.019,0.735,0.023,1.105 c0.006,0.373,0,0.749,0.017,1.124c0.019,0.399,0.068,0.797,0.093,1.198c0.023,0.373,0.029,0.747,0.037,1.12 c0.017,0.762,0.039,1.525,0.039,2.287c0,0.304,0.002,0.609-0.002,0.913c-0.002,0.23-0.012,0.46,0,0.69 C17.163,25.003,17.164,25.005,17.166,25.007z M21.947,15.139c-0.017,0.261-0.037,0.524-0.06,0.787 c-0.068,0.791-0.145,1.583-0.213,2.374c-0.07,0.813-0.126,1.625-0.199,2.438c-0.072,0.755-0.155,1.509-0.221,2.266 c-0.064,0.712-0.132,1.426-0.215,2.138c0,0.141-0.037,0.275-0.108,0.398c-0.07,0.118-0.164,0.213-0.282,0.283 c-0.184,0.108-0.406,0.137-0.609,0.081c-0.197-0.056-0.37-0.188-0.472-0.364c-0.118-0.201-0.112-0.389-0.079-0.609 c0.006-0.04,0.012-0.079,0.017-0.119c0.007-0.055,0.013-0.11,0.019-0.165c0.087-0.747,0.12-1.498,0.192-2.244 c0.074-0.766,0.155-1.531,0.211-2.299c0.062-0.811,0.132-1.62,0.193-2.43c0.062-0.844,0.072-1.691,0.122-2.535 c0.029-0.464,0.368-0.853,0.853-0.853C21.535,14.286,21.98,14.675,21.947,15.139z M11.862,24.915c0,0.003,0.001,0.005,0.001,0.008 l0,0.001C11.863,24.92,11.862,24.918,11.862,24.915z M13.493,24.752c0.133,0.521-0.252,1.047-0.797,1.047 c-0.219,0-0.43-0.087-0.584-0.242c-0.158-0.156-0.205-0.324-0.235-0.53c0.005,0.035,0.009,0.071,0.014,0.106 c-0.008-0.055-0.015-0.109-0.022-0.164c-0.003-0.016-0.005-0.031-0.006-0.047c-0.174-1.341-0.267-2.693-0.44-4.033 c-0.089-0.639-0.187-1.277-0.27-1.918c0.002,0.015,0.004,0.03,0.006,0.044c-0.195-1.41-0.445-2.81-0.641-4.221 c-0.039-0.147-0.039-0.296,0-0.443c0.041-0.141,0.112-0.265,0.215-0.37c0.157-0.155,0.371-0.244,0.592-0.244s0.433,0.089,0.59,0.244 c0.172,0.172,0.215,0.36,0.246,0.59c0.106,0.824,0.2,1.651,0.306,2.475c-0.001-0.007-0.002-0.015-0.003-0.022 c0.108,0.773,0.215,1.545,0.313,2.319c0.083,0.6,0.204,1.192,0.277,1.794c0.064,0.538,0.118,1.078,0.19,1.616 c-0.01-0.072-0.019-0.143-0.029-0.215c0.086,0.63,0.136,1.264,0.212,1.895C13.446,24.542,13.466,24.648,13.493,24.752z"/> </g>
</svg>