<?xml version="1.0" encoding="utf-8"?><!-- Uploaded to: SVG Repo, www.svgrepo.com, Generator: SVG Repo Mixer Tools -->
<svg version="1.1" id="designs" xmlns="http://www.w3.org/2000/svg" xmlns:xlink="http://www.w3.org/1999/xlink" 
	 width="800px" height="800px" viewBox="0 0 32 32" xml:space="preserve">
<style type="text/css">
	.sketchy_een{fill:#111918;}
</style>
<path class="sketchy_een" d="M24.866,27.265l-3.871-0.016c-1.479-0.004-2.955-0.011-4.432-0.045
	c-1.505-0.036-3.01-0.062-4.515-0.064c-0.423,0-0.846-0.006-1.269-0.013l-0.868-0.012l-0.699-0.002
	c-0.561,0-1.122,0.004-1.684,0.008c0,0-1.007,0.017-1.256,0.017c-0.309,0-0.617-0.007-0.926-0.028
	c-0.489-0.034-0.979-0.056-1.468-0.077L2.988,26.99c-0.44-0.024-0.773-0.347-0.792-0.766c-0.101-0.115-0.156-0.268-0.155-0.423
	c0.002-0.285-0.001-0.569-0.005-0.854c0,0-0.006-1.504-0.01-1.971c-0.003-0.31-0.019-0.618-0.035-0.928
	c-0.01-0.204-0.021-0.409-0.027-0.613c-0.017-0.562-0.017-1.127-0.007-1.69c0.008-0.433,0.361-0.784,0.788-0.784
	c0.05,0,0.095,0.013,0.138,0.024c0.109-0.024,0.191-0.042,0.271-0.042l1.542,0.052c0.2,0.006,0.4,0.01,0.603,0.012
	c0.153,0,0.305,0.014,0.457,0.033l-0.002,0.021l0.006-0.021v0.008l0.001-0.007c0.184,0.022,0.326,0.035,0.467,0.045
	c0.196,0.011,0.38,0.088,0.52,0.217c0.279,0.104,0.48,0.391,0.483,0.705l0.003,0.694c0,0.483,0,0.968,0.029,1.451l0.204-0.021
	c0.308-0.01,1.29-0.036,1.29-0.036c0.428-0.012,0.856-0.022,1.285-0.025l4.625,0.014c0.486,0,0.974,0.007,1.458,0.045
	c0.676,0.055,1.372,0.088,2.068,0.099c1.02,0.015,2.04,0.018,3.061,0.018l3.975-0.006c-0.104-0.551-0.147-1.104-0.191-1.655
	l-0.078-0.962c-0.015-0.18,0.051-0.359,0.187-0.506c0.152-0.166,0.369-0.265,0.58-0.265c0.105-0.01,0.141-0.02,0.179-0.02
	c0.316,0.01,0.606,0.034,0.896,0.058c0.254,0.021,0.508,0.042,0.762,0.054c0.25,0.012,0.501,0.019,0.751,0.025l0.521,0.017
	c0.21,0.005,0.409,0.09,0.559,0.24c0.285,0.091,0.493,0.372,0.51,0.704c0.051,1.087,0.091,2.175,0.105,3.263l0.018,1.584
	c0.002,0.191,0.008,0.384,0.013,0.576c0.008,0.249,0.015,0.497,0.014,0.745c-0.002,0.391-0.312,0.723-0.707,0.756
	c-0.099,0.244-0.373,0.418-0.676,0.426c-0.176,0.004-0.353,0.005-0.528,0.005L24.866,27.265z M12.685,25.558
	c0.869,0,1.737,0.01,2.605,0.032c1.508,0.04,3.019,0.077,4.529,0.095c0.342,0.004,0.684,0.005,1.026,0.005
	c0.54,0,5.646-0.015,5.646-0.015l1.051,0.006c0.34,0,0.681-0.004,1.02-0.019l-0.05-0.074l-0.006-0.262
	c-0.005-0.195-0.01-0.39-0.01-0.585c0,0,0.009-1.256,0.007-1.603c-0.002-0.519-0.011-1.038-0.029-1.556
	c-0.011-0.303-0.034-0.604-0.057-0.904l-0.015-0.188c-0.041,0.023-0.086,0.028-0.133,0.028c-0.025,0-0.052-0.002-0.077-0.003
	c-0.215-0.01-0.425-0.021-0.638-0.036c-0.354-0.028-0.71-0.038-1.066-0.045c0.063,0.156,0.076,0.364,0.093,0.573l0.059,0.636
	c0,0,0.034,0.483,0.045,0.588c0.323,0.129,0.588,0.447,0.588,0.817c0,0.438-0.367,0.808-0.802,0.808
	c-0.244-0.002-0.48-0.013-0.718-0.024c-0.247-0.012-0.494-0.023-0.741-0.024c-0.522,0-2.381-0.007-2.381-0.007
	c-0.436-0.001-0.872-0.001-1.308-0.007l-2.17-0.036l-0.864-0.002c-0.444,0-0.889,0-1.33-0.015c-0.215-0.006-0.43-0.022-0.645-0.039
	l-0.381-0.027c-0.339-0.021-0.683-0.021-1.024-0.021c-0.296,0-0.593-0.005-0.89-0.011c-0.296-0.005-0.593-0.011-0.889-0.011
	l-0.197,0.001c-0.662,0.007-1.324,0.011-1.986,0.011l-0.883-0.002c-0.417,0-0.833,0.003-1.249,0.015
	c-0.669,0.021-1.338,0.064-2.006,0.108c0,0-0.261,0.017-0.262,0.017c-0.448,0-0.812-0.386-0.812-0.81
	c0-0.149,0.048-0.293,0.147-0.439c-0.099-0.084-0.152-0.229-0.155-0.376c-0.004-0.151-0.003-0.304-0.002-0.456
	c0.001-0.161,0.002-0.323-0.002-0.484l-0.02-0.704l-0.16,0.028c-0.236-0.025-0.476-0.029-0.715-0.029l-0.312,0.001
	c-0.351-0.001-0.702-0.006-1.053-0.012l0.044,0.164c-0.009,0.275-0.018,0.551-0.016,0.827c0.001,0.291,0.015,0.582,0.029,0.872
	c0.01,0.204,0.02,0.407,0.025,0.611c0.014,0.494,0.014,0.988,0.013,1.482c0,0.339,0,0.678,0.004,1.016l1.546,0.062
	c0.512,0.033,1.021,0.047,1.532,0.047c0,0,1.146-0.009,1.539-0.009l1.288,0.002c0.482,0,0.965-0.001,1.447-0.006
	C11.505,25.562,12.095,25.558,12.685,25.558z M16.133,20.701c-0.108,0-0.213-0.022-0.311-0.066
	c-0.023,0.001-0.046,0.002-0.069,0.002c-0.205,0-0.359-0.07-0.514-0.205l-0.58-0.503c-0.311-0.268-0.621-0.535-0.926-0.809
	c-0.515-0.458-0.975-0.94-1.48-1.478c-0.234-0.25-0.479-0.489-0.725-0.727c-0.235-0.229-0.418-0.427-0.601-0.624l-0.149-0.16
	c-0.325-0.352-0.659-0.696-0.992-1.04l-0.654-0.68c-0.297-0.311-0.297-0.807,0.001-1.104c0.145-0.145,0.35-0.227,0.562-0.227
	c0.108,0,0.218,0.026,0.328,0.079c0.054-0.042,0.136-0.061,0.216-0.061l0.955,0.059l0.272,0.012
	c-0.042-0.14-0.035-0.328-0.031-0.516c0,0,0.024-0.762,0.026-0.93l0.007-0.474c0.007-0.445,0.014-0.891,0.012-1.336l-0.002-1.9
	c0-0.401-0.01-0.802-0.02-1.203l-0.016-0.751c-0.154-0.118-0.248-0.322-0.248-0.54c0-0.429,0.359-0.79,0.784-0.79
	c0.317,0.003,0.627,0.011,0.938,0.02c0.404,0.01,0.807,0.021,1.21,0.021c0.365,0,0.667-0.009,0.971-0.018
	c0.304-0.009,0.608-0.018,0.913-0.018l0.622,0.003c0.467,0,0.934-0.006,1.402-0.017l0.477-0.007c0.111,0,0.223,0.001,0.332,0.007
	c0.154,0.008,0.309,0.023,0.462,0.039l0.262,0.025c0.182,0.017,0.391,0.057,0.568,0.237c0.145,0.145,0.23,0.347,0.234,0.555
	c0.085,0.116,0.13,0.253,0.129,0.39c-0.003,0.295-0.012,0.591-0.021,0.886c-0.011,0.396-0.022,0.792-0.021,1.187
	c0.002,0.615,0.006,1.229,0.018,1.844l0.009,0.727c0.003,0.346,0.006,0.691,0.016,1.038c0.011,0.36,0.037,0.722,0.063,1.084
	l0.017,0.229l0.236-0.038l0.807,0.02c0.217,0.003,0.433,0.005,0.648,0.03c0.219,0.024,0.396,0.073,0.555,0.232
	c0.112,0.104,0.189,0.146,0.257,0.215c0.158,0.156,0.249,0.392,0.241,0.629c-0.007,0.217-0.093,0.409-0.243,0.541
	c-0.614,0.539-1.222,1.084-1.823,1.637L20.735,16.7c-0.354,0.319-0.708,0.639-1.052,0.969l-0.158,0.153
	c-0.918,0.885-1.867,1.801-2.838,2.661C16.53,20.624,16.333,20.701,16.133,20.701z M11.851,15.088
	c0.25,0.281,0.505,0.555,0.774,0.816l0.118,0.115c0.208,0.202,0.415,0.404,0.615,0.611l0.183,0.191
	c0.183,0.192,0.366,0.384,0.557,0.568c0.234,0.229,0.481,0.449,0.727,0.666c0.326,0.29,0.657,0.573,0.987,0.856l0.183,0.156
	c0.29-0.32,0.643-0.646,0.984-0.979l0.287-0.281c0.432-0.424,0.863-0.847,1.303-1.261c0.234-0.22,0.471-0.437,0.708-0.653
	c0.287-0.262,0.574-0.524,0.857-0.793l0.718-0.679l-0.12,0.088l-0.551,0.001c-0.28-0.003-0.545-0.164-0.69-0.421
	c-0.309-0.103-0.524-0.408-0.512-0.737c0.006-0.201-0.008-0.403-0.021-0.604L18.94,12.49c-0.016-0.294-0.028-0.589-0.034-0.885
	c-0.007-0.37-0.002-0.741,0.003-1.111l0.007-0.633l0.014-3.57c-0.155,0.022-0.334,0.026-0.52,0.026
	c-0.078,0-0.421-0.001-0.421-0.001c-0.124,0-0.247,0-0.369-0.006c-0.329-0.01-1.783-0.038-1.783-0.038
	c-0.144-0.004-0.288-0.005-0.432-0.005c-0.258,0-0.516,0.005-0.774,0.01l-1.697,0.021l0.045,0.558
	c-0.003,0.404-0.007,0.809,0.002,1.213L13,8.844c0.009,0.381,0.019,0.763,0.022,1.145c0.006,0.618,0.011,1.237-0.002,1.854
	l-0.024,0.951v0.272c0,0.181,0.001,0.362-0.011,0.543c-0.018,0.282-0.148,0.518-0.368,0.661c-0.021,0.08-0.08,0.169-0.153,0.242
	c-0.104,0.106-0.3,0.23-0.506,0.23l0,0c-0.173-0.016-0.31-0.021-0.443-0.026L11.851,15.088z"/>
</svg>