<!DOCTYPE svg PUBLIC "-//W3C//DTD SVG 1.1//EN" "http://www.w3.org/Graphics/SVG/1.1/DTD/svg11.dtd">
<!-- Uploaded to: SVG Repo, www.svgrepo.com, Transformed by: SVG Repo Mixer Tools -->
<svg version="1.1" id="designs" xmlns="http://www.w3.org/2000/svg" xmlns:xlink="http://www.w3.org/1999/xlink" width="64px" height="64px" viewBox="0 0 32 32" xml:space="preserve" fill="#000000" transform="matrix(-1, 0, 0, 1, 0, 0)" stroke="#000000" stroke-width="0.16">
<g id="SVGRepo_bgCarrier" stroke-width="0"/>
<g id="SVGRepo_tracerCarrier" stroke-linecap="round" stroke-linejoin="round"/>
<g id="SVGRepo_iconCarrier"> <style type="text/css"> .sketchy_een{fill:#111918;} </style> <path class="sketchy_een" d="M29.887,15.37c-0.13-0.234-0.32-0.406-0.511-0.586c-0.146-0.136-0.289-0.272-0.433-0.412 c-0.295-0.287-0.584-0.58-0.877-0.872c-0.579-0.575-1.172-1.136-1.766-1.696c-0.584-0.55-1.159-1.109-1.73-1.672 c-0.594-0.59-1.19-1.174-1.824-1.722c-0.776-0.67-1.533-1.356-2.27-2.069c-0.54-0.523-1.066-1.063-1.593-1.601 c-0.037-0.046-0.076-0.085-0.122-0.122c-0.141-0.144-0.285-0.283-0.426-0.428c-0.141-0.145-0.332-0.215-0.524-0.215 c-0.195,0-0.39,0.073-0.533,0.215c-0.289,0.289-0.285,0.768,0,1.058c0.028,0.028,0.057,0.054,0.085,0.082 c0.004,0.849,0.021,1.697,0.021,2.546c-0.001,0.546,0,1.096-0.01,1.645c-0.852,0.011-1.703,0.087-2.54,0.24 c-0.862,0.159-1.726,0.372-2.533,0.711c-0.423,0.178-0.831,0.389-1.23,0.617c-0.362,0.207-0.728,0.412-1.069,0.649 c-0.774,0.536-1.525,1.103-2.22,1.739c-0.67,0.613-1.274,1.282-1.828,2.002c-0.5,0.651-0.948,1.353-1.368,2.057 c-0.437,0.73-0.885,1.468-1.247,2.24c-0.205,0.437-0.356,0.891-0.498,1.353c-0.115,0.372-0.216,0.745-0.287,1.13 c-0.065,0.362-0.111,0.728-0.169,1.092c-0.065,0.41-0.147,0.816-0.216,1.226c-0.077,0.45-0.128,0.908-0.157,1.364 c-0.027,0.404-0.019,0.807,0.1,1.195c0.128,0.425,0.565,0.69,1.002,0.569c0.023-0.006,0.039-0.023,0.061-0.031 c0.388,0.216,0.879,0.077,1.107-0.301c0.161-0.266,0.326-0.531,0.489-0.797c0.092-0.149,0.202-0.292,0.306-0.435 c0.248-0.302,0.5-0.594,0.772-0.877c0.252-0.261,0.544-0.491,0.833-0.715c0.51-0.369,1.037-0.709,1.579-1.032 c0.546-0.325,1.114-0.597,1.693-0.854c0.854-0.346,1.74-0.636,2.651-0.79c0.691-0.083,1.383-0.116,2.08-0.121 c0.71-0.007,1.417,0.007,2.123,0.081c0.03,0.005,0.06,0.011,0.09,0.016c0.014,0.828,0.027,1.655,0.008,2.485 c-0.019,0.87,0,1.738-0.004,2.607c-0.001,0.19,0.078,0.36,0.193,0.498c0.035,0.133,0.091,0.259,0.189,0.357 c0.146,0.146,0.347,0.228,0.552,0.228c0.22,0,0.389-0.09,0.552-0.228c0.276-0.234,0.534-0.492,0.801-0.737 c0.272-0.255,0.544-0.512,0.807-0.776c0.521-0.519,1.042-1.036,1.556-1.561c0.533-0.544,1.08-1.075,1.621-1.609 c0.571-0.565,1.134-1.138,1.699-1.705c0.797-0.799,1.569-1.621,2.375-2.41c0.845-0.831,1.674-1.676,2.498-2.529 c0.099-0.103,0.153-0.229,0.187-0.359C30.02,15.875,30.019,15.606,29.887,15.37z M26.871,17.238 c-0.544,0.571-1.115,1.115-1.669,1.678c-0.55,0.557-1.107,1.109-1.665,1.663c-0.563,0.56-1.121,1.126-1.686,1.684 c-0.759,0.749-1.496,1.519-2.253,2.266c-0.361,0.357-0.712,0.725-1.083,1.073c0.009-0.423,0.009-0.845,0.027-1.267 c0.021-0.448,0.046-0.898,0.054-1.349c0.011-0.544,0.006-1.09,0-1.634c-0.003-0.396-0.285-0.72-0.655-0.813 c-0.096-0.1-0.208-0.184-0.351-0.215c-0.734-0.156-1.487-0.199-2.237-0.199c-0.133,0-0.266,0.001-0.399,0.004 c-0.889,0.014-1.772,0.052-2.653,0.173c-0.391,0.052-0.77,0.168-1.149,0.27c-0.391,0.104-0.782,0.226-1.159,0.375 c-0.801,0.314-1.621,0.644-2.356,1.092c-0.42,0.255-0.845,0.506-1.249,0.783c-0.487,0.333-0.95,0.695-1.402,1.076 c-0.385,0.324-0.718,0.703-1.044,1.084c-0.081,0.095-0.148,0.2-0.224,0.299c0.059-0.385,0.135-0.766,0.202-1.151 c0.076-0.433,0.122-0.87,0.175-1.306c0.117-0.779,0.353-1.534,0.649-2.262c0.336-0.731,0.778-1.422,1.2-2.109 c0.423-0.685,0.864-1.361,1.343-2.006c0.369-0.465,0.76-0.911,1.18-1.331c0.466-0.466,0.962-0.896,1.47-1.311 c0.98-0.735,2.01-1.4,3.129-1.905c0.753-0.276,1.533-0.455,2.323-0.592c0.305-0.038,0.613-0.078,0.919-0.093 c0.443-0.023,0.881-0.033,1.326-0.025c0.08,0.001,0.153-0.024,0.226-0.045c0.106,0.047,0.218,0.075,0.332,0.075 c0.222,0,0.439-0.09,0.598-0.247c0.167-0.168,0.228-0.366,0.247-0.598c0.033-0.396,0.021-0.795,0.023-1.194 C19.06,8.77,19.064,8.36,19.066,7.95c0.002-0.327,0.005-0.654,0.008-0.981c0.632,0.607,1.249,1.229,1.898,1.819 c0.605,0.55,1.226,1.084,1.807,1.663c0.594,0.59,1.172,1.195,1.764,1.789c0.659,0.661,1.341,1.301,1.996,1.965 c0.541,0.552,1.096,1.098,1.602,1.686C27.718,16.341,27.295,16.791,26.871,17.238z"/> </g>
</svg>