<!DOCTYPE svg PUBLIC "-//W3C//DTD SVG 1.1//EN" "http://www.w3.org/Graphics/SVG/1.1/DTD/svg11.dtd">
<!-- Uploaded to: SVG Repo, www.svgrepo.com, Transformed by: SVG Repo Mixer Tools -->
<svg version="1.1" id="designs" xmlns="http://www.w3.org/2000/svg" xmlns:xlink="http://www.w3.org/1999/xlink" width="64px" height="64px" viewBox="0 0 32 32" xml:space="preserve" fill="#000000">
<g id="SVGRepo_bgCarrier" stroke-width="0"/>
<g id="SVGRepo_tracerCarrier" stroke-linecap="round" stroke-linejoin="round"/>
<g id="SVGRepo_iconCarrier"> <style type="text/css"> .sketchy_een{fill:#111918;} </style> <path class="sketchy_een" d="M28.854,18.091c-0.016-0.824-0.037-1.649-0.043-2.473c-0.006-0.838-0.004-1.676-0.016-2.514 c-0.01-0.812-0.018-1.627-0.053-2.44c-0.037-0.868-0.106-1.737-0.118-2.605c-0.022-1.413-0.012-2.825-0.047-4.238 C28.565,3.374,28.211,3,27.752,3c-0.225,0-0.437,0.101-0.591,0.258c-0.044-0.007-0.088-0.018-0.132-0.018 c-0.07,0-0.14,0.009-0.211,0.028c-0.11,0.017-0.219,0.036-0.33,0.054c-0.745,0.076-1.5,0.08-2.246,0.084 c-0.809,0.006-1.615,0.039-2.422,0.067c-1.702,0.061-3.407,0.059-5.109,0.057c-1.66-0.002-3.319,0.026-4.977,0.055 c-1.723,0.031-3.447,0.024-5.17-0.002C5.842,3.571,5.12,3.571,4.398,3.577C4.267,3.578,4.147,3.615,4.035,3.67 C3.584,3.682,3.241,4.05,3.228,4.494C3.2,5.415,3.173,6.335,3.157,7.256C3.143,8.059,3.149,8.861,3.149,9.664 c0.002,1.684,0.006,3.366,0.02,5.05c0.028,3.252,0.024,6.502,0.037,9.754c0.006,1.094,0.012,2.187,0.002,3.279 c-0.081,0.13-0.139,0.273-0.139,0.428c0,0.216,0.089,0.427,0.242,0.582c0.142,0.142,0.374,0.26,0.58,0.24 c0.895-0.083,1.792-0.154,2.687-0.211c0.872-0.055,1.741-0.085,2.613-0.104c1.651-0.039,3.303-0.033,4.954-0.039 c1.698-0.006,3.396-0.026,5.095-0.051c0.911-0.012,1.824-0.01,2.739-0.01c0.722,0.002,1.446,0.002,2.17-0.004 c1.167-0.01,2.331-0.028,3.5,0.016c0.042,0.002,0.079-0.017,0.119-0.022c0.113,0.061,0.236,0.106,0.368,0.106 c0.429,0,0.801-0.362,0.795-0.795C28.892,24.619,28.913,21.355,28.854,18.091z M17.802,27.054c-0.812,0.006-1.625,0.002-2.438-0.002 c-0.85-0.004-1.702-0.008-2.552-0.002c-1.385,0.01-2.771,0.04-4.156,0.076c-0.04-0.684-0.036-1.369-0.043-2.053 c-0.008-0.72-0.041-1.438-0.051-2.158c-0.019-1.353,0.019-2.705,0.034-4.058c1.526-0.049,3.051-0.097,4.577-0.143 c1.694-0.051,3.388-0.049,5.082-0.041c1.443,0.009,2.886-0.001,4.328-0.014c0.031,0.564,0.064,1.128,0.077,1.693 c0.018,0.773,0.014,1.544,0.029,2.318c0.016,0.773,0.059,1.542,0.134,2.314c0.033,0.358,0.069,0.716,0.1,1.076 c0.016,0.175,0.031,0.35,0.047,0.523c0.013,0.145,0.024,0.29,0.041,0.434c-0.084,0-0.169,0.001-0.253,0.002 C21.108,27.025,19.455,27.042,17.802,27.054z M25.235,27.003c-0.161,0.001-0.32,0.002-0.481,0.003 c-0.019-0.064-0.029-0.13-0.066-0.189c-0.012-0.053-0.021-0.107-0.029-0.16c-0.158-1.38-0.269-2.767-0.28-4.156 c-0.012-1.509,0.033-3.016-0.041-4.525c-0.024-0.484-0.388-0.891-0.891-0.891c-0.038,0-0.074,0.018-0.112,0.023 c-0.033-0.004-0.062-0.02-0.095-0.02c-0.003,0-0.007,0-0.01,0c-0.693,0.01-1.383,0.008-2.076,0.008 c-0.944-0.002-1.891-0.004-2.833,0.02c-1.69,0.045-3.382,0.026-5.072,0.059c-0.864,0.016-1.725,0.012-2.589,0.01 c-0.99,0-1.979,0.028-2.969,0.053c-0.449,0.012-0.824,0.366-0.824,0.824c0,0.13,0.04,0.251,0.098,0.364 c0.009,1.497,0.015,2.993,0.025,4.49c0.004,0.72,0.045,1.438,0.055,2.158c0.011,0.699,0.008,1.399,0.033,2.097 c-0.803,0.031-1.606,0.073-2.409,0.13c-0.004-0.593-0.007-1.185-0.007-1.778c0-0.785-0.012-1.57-0.01-2.355 c0.002-1.645,0.006-3.287,0.018-4.932c0.01-1.662,0.012-3.327,0.01-4.989c-0.004-1.639-0.008-3.28,0.037-4.916 c0.028-1.025,0.082-2.048,0.13-3.071C6.48,5.228,8.115,5.191,9.749,5.153c1.684-0.041,3.368-0.059,5.054-0.089 c1.651-0.029,3.303-0.016,4.954-0.043c0.836-0.014,1.67-0.031,2.506-0.051c0.813-0.018,1.627-0.014,2.441-0.024 c0.382-0.004,0.765-0.02,1.147-0.039c0.372-0.017,0.743-0.035,1.112-0.078c0.02,0.59,0.041,1.18,0.059,1.771 c0.026,0.862,0.033,1.721,0.075,2.583c0.039,0.836,0.081,1.668,0.096,2.506c0.014,0.816,0.02,1.635,0.031,2.453 c0.01,0.858,0.018,1.714,0.041,2.571c0.022,0.801,0.049,1.601,0.061,2.404c0.028,1.66,0.039,3.323,0.041,4.983 c0.001,0.962-0.007,1.924-0.021,2.885c-0.078,0-0.156-0.002-0.234-0.002C26.487,26.985,25.861,27,25.235,27.003z M13.782,23.552 c0.01-0.759,0.028-1.517,0.031-2.276c0.001-0.322-0.196-0.599-0.471-0.734c-0.074-0.118-0.166-0.225-0.287-0.296 c-0.139-0.081-0.275-0.11-0.417-0.11c-0.081,0-0.164,0.009-0.252,0.024c-0.012,0.002-0.024,0.004-0.035,0.005 c-0.426,0.045-0.856,0.05-1.285,0.05c-0.339,0-0.63,0.204-0.781,0.489c-0.207,0.156-0.351,0.391-0.35,0.665 c0.006,1.155,0.043,2.31,0.033,3.464c-0.002,0.116-0.004,0.23,0.002,0.346c0.006,0.112,0.022,0.228,0.041,0.338 c0.022,0.144,0.069,0.254,0.126,0.391c0.22,0.515,0.83,0.689,1.342,0.716c0.273,0.014,0.545,0.006,0.816-0.022 c0.238-0.026,0.482-0.085,0.722-0.065c0.331,0.03,0.647-0.252,0.73-0.557c0.011-0.04,0.004-0.083,0.008-0.124 c0.023-0.047,0.064-0.083,0.079-0.135c0.037-0.14,0.037-0.277,0-0.417c-0.001-0.003-0.001-0.006-0.002-0.008 C13.769,24.718,13.773,24.134,13.782,23.552z M11.598,24.522c-0.002-0.325,0.002-0.649,0.006-0.972 c0.009-0.525,0.015-1.049,0.021-1.574c0.184-0.01,0.368-0.026,0.551-0.047c0.007,0.541,0.015,1.081,0.024,1.623 c0.008,0.498,0.018,1.002,0.055,1.501c-0.217,0.013-0.434,0.017-0.652,0.003C11.596,24.879,11.598,24.7,11.598,24.522z M11.616,25.238L11.616,25.238c0,0.001,0.001,0.001,0.002,0.002C11.617,25.24,11.617,25.239,11.616,25.238z M12.278,10.033 c-0.443-0.01-0.813-0.362-0.813-0.812c0-0.425,0.357-0.813,0.79-0.813c0.008,0,0.015,0,0.023,0c0.669,0.022,1.338,0.059,2.005,0.092 C14.855,8.528,15.428,8.534,16,8.542c0.582,0.006,1.165-0.002,1.745-0.006c0.114,0,0.228,0,0.342,0c0.449,0,0.897,0,1.34-0.053 c0.201-0.026,0.435,0.1,0.571,0.236c0.151,0.149,0.238,0.356,0.238,0.57c0,0.212-0.087,0.419-0.238,0.571 c-0.163,0.163-0.346,0.211-0.571,0.236c-0.567,0.065-1.145,0.024-1.714,0.02c-0.594-0.002-1.19-0.01-1.784-0.008 C14.712,10.112,13.496,10.061,12.278,10.033z M20.534,12.318c0,0.211-0.087,0.417-0.236,0.567c-0.138,0.138-0.364,0.252-0.567,0.234 c-1.084-0.096-2.178-0.079-3.266-0.071c-1.31,0.008-2.622,0.031-3.935,0.035c-0.429,0.002-0.787-0.358-0.787-0.787 c0-0.426,0.356-0.785,0.783-0.785c0.001,0,0.002,0,0.003,0c1.326,0.004,2.654,0.008,3.98,0c0.449,0,0.899,0.002,1.35,0.004 c0.624,0.004,1.247,0.008,1.871,0C20.168,11.511,20.534,11.885,20.534,12.318z"/> </g>
</svg>